<svg width="580" height="400" xmlns="http://www.w3.org/2000/svg">
 <!-- Created with Method Draw - http://github.com/duopixel/Method-Draw/ -->
 <g>
  <title>background</title>
  <rect fill="#fff" id="canvas_background" height="402" width="582" y="-1" x="-1"/>
  <g display="none" overflow="visible" y="0" x="0" height="100%" width="100%" id="canvasGrid">
   <rect fill="url(#gridpattern)" stroke-width="0" y="0" x="0" height="100%" width="100%"/>
  </g>
 </g>
 <g>
  <title>Layer 1</title>
  <path stroke="#ffffff" d="m143.5,83.45313c0,0 0.30745,1.186 -1,3c-0.8269,1.14727 -1.23463,1.15224 -2,3c-0.5412,1.30656 -1.23463,3.15224 -2,5c-0.5412,1.30656 -1.48625,2.82374 -2,5c-0.22975,0.97325 -1,3 -1,4c0,1 -1,4 -2,7c0,0 0,3 0,4c0,2 0,3 0,4c0,2 0.95517,2.54915 2,6c0.28978,0.95709 0.69255,2.186 2,4c0.8269,1.14726 2,2 3,3c0,0 1,2 1,2c1,1 2,2 3,3c0,0 1,2 1,2c0,0 -0.02675,0.22975 -1,0c-2.17625,-0.51375 -2,-1 -3,-1c0,0 -1.07613,-0.61731 -2,-1c-1.30656,-0.5412 -1,-1 -2,-1c0,0 -1,0 -1,0c-1,0 -1,-1 -1,-1c0,0 -0.30656,0.4588 1,1c2.77164,1.14805 5,1 5,1c0,0 1,1 2,1c0,0 2.29289,0.2929 3,1c0.70711,0.7071 0,-1 0,-3c0,0 0,-1 0,-3c0,-1 0,-2 0,-2c0,-1 0,-1 0,-2l0,-1l0,0" id="svg_1" stroke-width="1.5" fill="#ffffff"/>
  <text font-style="italic" font-weight="bold" style="cursor: move;" xml:space="preserve" text-anchor="start" font-family="'Simonetta', serif" font-size="24" id="svg_2" y="81.453125" x="66.5" stroke-width="0" stroke="#000" fill="#ffffff">Endless Swiping</text>
 </g>
</svg>