<?xml version="1.0" encoding="utf-8"?>
<!-- Generator: Adobe Illustrator 16.0.0, SVG Export Plug-In . SVG Version: 6.00 Build 0)  -->
<!DOCTYPE svg PUBLIC "-//W3C//DTD SVG 1.1//EN" "http://www.w3.org/Graphics/SVG/1.1/DTD/svg11.dtd">
<svg version="1.1" id="Layer_1" xmlns="http://www.w3.org/2000/svg" xmlns:xlink="http://www.w3.org/1999/xlink" x="0px" y="0px"
	 width="49.716px" height="10.896px" viewBox="0 0 49.716 10.896" enable-background="new 0 0 49.716 10.896" xml:space="preserve">
<path fill="none" stroke="#000000" stroke-miterlimit="10" d="M7.278,5.765c-0.302,1.654-0.896,3.158,0.64,4.506
	c-0.46-0.011-1.179-0.006-1.485-0.006c0.518,0,1.022,0.01,1.5,0.071c0.065-0.525,0.389-0.904,0.512-1.404"/>
<text transform="matrix(1 0 0 1 0 4.0024)" font-family="'my-normal-handwriting'" font-size="4.7164">Never-ending swiping.</text>
<path fill="none" stroke="#000000" stroke-miterlimit="10" d="M39.219,5.765c0.303,1.654,0.896,3.158-0.639,4.506
	c0.46-0.011,1.179-0.006,1.484-0.006c-0.518,0-1.022,0.01-1.5,0.071c-0.064-0.525-0.389-0.904-0.512-1.404"/>
</svg>
